<svg width="72" height="72" viewBox="0 0 72 72" fill="none" xmlns="http://www.w3.org/2000/svg">
<rect y="64" width="72" height="8" rx="4" fill="#2EB360"/>
<path fill-rule="evenodd" clip-rule="evenodd" d="M49.0684 47.8129H42.0911L25.9036 23.996L10.1819 20.9263L4.693 48.0921C3.85588 52.2788 10.089 53.5809 11.019 49.3947L14.0887 34.5088L19.6705 45.5795C18.647 45.5795 17.717 45.4866 16.6936 45.4866C12.5069 45.4866 12.5069 51.9989 16.6936 51.9989H49.0685C51.8597 51.9989 51.8597 47.8121 49.0685 47.8121L49.0684 47.8129Z" fill="#012C36"/>
<path fill-rule="evenodd" clip-rule="evenodd" d="M9.90084 14.3207C10.273 14.4136 10.273 18.1352 10.273 18.1352L24.9717 20.9264C25.7159 16.8331 26.553 8.08813 28.4136 4.73891C31.6698 -5.58749 21.25 4.18045 21.25 4.18045C14.8306 2.31982 16.0404 4.73891 13.0628 4.73891C5.80634 3.80834 -1.72876 3.90179 4.50363 11.3441C6.17838 13.0188 7.75984 13.5767 9.89964 14.3209L9.90084 14.3207Z" fill="#012C36"/>
<path fill-rule="evenodd" clip-rule="evenodd" d="M64.6969 19.6241H57.6267C56.324 12.5539 40.602 12.5539 39.3919 19.6241H32.2282C30.0884 19.6241 28.2278 20.9268 27.4836 22.7873L43.2053 45.8598H49.2527C52.4158 45.8598 54.1836 49.488 52.3224 52H64.6958C67.4869 52 69.8124 49.7674 69.8124 46.8833V24.741C69.8124 21.8569 67.4869 19.6243 64.6958 19.6243L64.6969 19.6241ZM54.9284 19.6241H41.9967C43.206 15.9959 53.8121 15.9959 54.9284 19.6241ZM57.7196 38.789H51.5793V45.0221H45.4391V38.789H39.206V32.6488H45.4391V26.5086H51.5793V32.6488H57.7196V38.789Z" fill="#012C36"/>
</svg>
