<svg width="72" height="72" viewBox="0 0 72 72" fill="none" xmlns="http://www.w3.org/2000/svg">
<rect y="64" width="72" height="8" rx="4" fill="#2EB360"/>
<path d="M39.6059 13.4664C44.3704 12.3717 49.7239 8.67547 54.1983 7.5471C49.7597 7.55448 46.8806 5.70316 49.6505 4.63428C51.9814 3.73789 59.8298 3.07753 63.9608 12.5192C64.7419 14.306 70.2185 15.2315 69.9934 17.5539C69.7642 19.9024 69.4424 20.363 68.3011 21.5006C66.6652 23.1288 63.1119 21.4139 60.5527 21.6385C59.903 21.6952 56.6471 23.2233 53.3797 24.9123C52.9039 24.6914 52.3694 24.4175 51.7723 24.0735C48.9993 22.4758 44.9203 19.3813 39.6056 13.4663L39.6059 13.4664ZM58.6922 15.7189C59.7071 15.7936 60.592 15.0295 60.6653 14.0137C60.7386 13.0002 59.9746 12.1144 58.9597 12.0421C57.9448 11.9678 57.0609 12.7328 56.988 13.7486C56.9133 14.7635 57.6774 15.6455 58.6923 15.7189H58.6922Z" fill="#012C36"/>
<path d="M8.78127 23.8919C12.1948 19.7826 23.4139 8.05764 36.6134 13.5027C42.9587 20.8421 47.8044 24.4867 51.0902 26.2927C51.2622 27.0138 51.1552 27.7991 50.7245 28.4737L35.4557 52.3927C34.9185 53.2352 33.999 53.7018 33.0588 53.7018C32.5834 53.7018 32.1029 53.5829 31.664 53.333C30.3531 52.5883 29.8537 50.9389 30.5297 49.5929L36.8141 37.0874C35.9416 37.0953 35.1559 36.9403 34.5736 36.5401C32.0882 34.8331 29.9963 33.69 28.2264 32.9509C30.6021 34.7917 32.3506 37.0741 31.8954 39.6803C30.6735 46.6973 19.6001 41.605 18.0136 40.971C16.9978 40.562 20.327 46.2949 21.4465 49.8948C22.075 51.9107 21.1459 53.0838 20.3546 53.342C16.2771 54.675 7.73351 37.6033 9.15533 34.3146C10.3187 31.6236 12.4961 33.2333 14.4549 33.1467C12.9244 32.1594 11.3313 30.7807 10.0624 29.4407C8.36409 31.8292 6.2693 35.709 6.31038 40.171C6.31269 42.3028 6.75166 44.5981 7.93253 47.0775C8.47156 48.2081 7.99247 49.5634 6.86093 50.1033C6.54553 50.2536 6.21307 50.3246 5.88615 50.3246C5.03864 50.3246 4.22529 49.8474 3.8361 49.0326C2.36517 45.9557 1.76893 42.9423 1.77035 40.1721C1.77727 35.2235 3.61524 31.1114 5.40064 28.2462C6.81113 25.9901 8.20097 24.4817 8.78009 23.8929L8.78127 23.8919Z" fill="#012C36"/>
<path d="M33.8606 4.01111H-1.60858e-05V5.53835H33.8606V4.01111Z" fill="#012C36"/>
<path d="M19.9068 8.021H4.10438V9.54859H19.9068V8.021Z" fill="#012C36"/>
<path d="M28.936 0H13.1336V1.52759H28.936V0Z" fill="#012C36"/>
</svg>
