<svg width="72" height="72" viewBox="0 0 72 72" fill="none" xmlns="http://www.w3.org/2000/svg">
<rect y="64" width="72" height="8" rx="4" fill="#2EB360"/>
<path d="M40.1174 34.2223H31.8822C31.8822 32.4735 30.4994 31.0556 28.7939 31.0556C27.0884 31.0556 25.7056 32.4735 25.7056 34.2223C25.7056 35.3238 26.254 36.2939 27.0861 36.8615C26.2541 37.4287 25.7056 38.3988 25.7056 39.5003C25.7056 41.2491 27.0884 42.667 28.7939 42.667C30.4994 42.667 31.8822 41.2491 31.8822 39.5003H40.1174C40.1174 41.2491 41.5002 42.667 43.2057 42.667C44.9112 42.667 46.294 41.2491 46.294 39.5003C46.294 38.3988 45.7456 37.4286 44.9135 36.8615C45.7455 36.2939 46.294 35.3238 46.294 34.2223C46.294 32.4735 44.9112 31.0556 43.2057 31.0556C41.5002 31.0556 40.1174 32.4735 40.1174 34.2223V34.2223ZM64.2734 44.7778H68.941C70.0781 44.7778 71 45.7231 71 46.8891C71 48.0551 70.0781 49 68.941 49H3.059C1.9219 49 1 48.0551 1 46.8891C1 45.7231 1.92188 44.7778 3.059 44.7778H7.7266L13.4485 26.1975C13.7192 25.3191 14.5137 24.7223 15.4118 24.7223C15.4118 18.8923 20.0208 14.1668 25.7058 14.1668C26.4749 14.1668 27.2331 14.2537 27.9706 14.4235C30.0667 12.2605 32.9331 11 35.9999 11C39.0667 11 41.9331 12.2605 44.0292 14.4235C44.7667 14.2537 45.5249 14.1668 46.294 14.1668C51.9792 14.1668 56.588 18.8924 56.588 24.7223C57.4861 24.7223 58.2806 25.3191 58.5513 26.1975L64.2734 44.7778ZM46.2944 18.3891C45.5292 18.3891 44.7858 18.5309 44.0893 18.804C43.2385 19.1373 42.2752 18.8581 41.7209 18.1175C40.3635 16.3042 38.2713 15.2224 36.0002 15.2224C33.7291 15.2224 31.6369 16.3043 30.2795 18.1175C29.7252 18.8581 28.7619 19.1373 27.9111 18.804C27.2146 18.5309 26.4713 18.3891 25.706 18.3891C22.2947 18.3891 19.5294 21.2245 19.5294 24.7226H52.4704C52.4704 21.2246 49.7052 18.3891 46.2938 18.3891H46.2944Z" fill="#012C36"/>
</svg>
