<svg width="90" height="90" viewBox="0 0 90 90" fill="none" xmlns="http://www.w3.org/2000/svg">
<circle cx="45" cy="45" r="45" fill="#A3C3DB"/>
<path fill-rule="evenodd" clip-rule="evenodd" d="M55.0625 61.7792H49.6953L37.2434 43.4585L25.1498 41.0972L20.9276 61.9939C20.2836 65.2145 25.0783 66.2161 25.7937 62.996L28.155 51.5453L32.4487 60.0612C31.6614 60.0612 30.946 59.9897 30.1588 59.9897C26.9382 59.9897 26.9382 64.9992 30.1588 64.9992H55.0626C57.2096 64.9992 57.2096 61.7786 55.0626 61.7786L55.0625 61.7792Z" fill="#E8F0F6"/>
<path fill-rule="evenodd" clip-rule="evenodd" d="M24.9333 36.0159C25.2196 36.0874 25.2196 38.9502 25.2196 38.9502L36.5263 41.0972C37.0988 37.9485 37.7427 31.2216 39.1739 28.6453C41.6787 20.7019 33.6635 28.2157 33.6635 28.2157C28.7255 26.7845 29.6561 28.6453 27.3656 28.6453C21.7837 27.9295 15.9875 28.0014 20.7816 33.7262C22.0699 35.0145 23.2864 35.4436 24.9324 36.0161L24.9333 36.0159Z" fill="#E8F0F6"/>
<path fill-rule="evenodd" clip-rule="evenodd" d="M67.084 40.0954H61.6454C60.6433 34.6568 48.5495 34.6568 47.6186 40.0954H42.1081C40.4621 40.0954 39.0309 41.0975 38.4584 42.5287L50.552 60.2767H55.2038C57.637 60.2767 58.9969 63.0677 57.5652 65H67.0831C69.2302 65 71.019 63.2825 71.019 61.0641V44.0315C71.019 41.813 69.2302 40.0955 67.0831 40.0955L67.084 40.0954ZM59.5698 40.0954H49.6223C50.5525 37.3045 58.7111 37.3045 59.5698 40.0954ZM61.7168 54.8377H56.9936V59.6324H52.2703V54.8377H47.4756V50.1144H52.2703V45.3912H56.9936V50.1144H61.7168V54.8377Z" fill="#E8F0F6"/>
</svg>
